STARTFONT 2.1
COMMENT
COMMENT Converted from OpenType font "Mario-Kart-DS.ttf" by "otf2bdf 3.0".
COMMENT
FONT -FreeType-Mario Kart DS-Medium-R-Normal--22-160-100-100-P-118-ISO10646-1
SIZE 16 100 100
FONTBOUNDINGBOX 15 19 0 -3
STARTPROPERTIES 19
FOUNDRY "FreeType"
FAMILY_NAME "Mario Kart DS"
WEIGHT_NAME "Medium"
SLANT "R"
SETWIDTH_NAME "Normal"
ADD_STYLE_NAME ""
PIXEL_SIZE 22
POINT_SIZE 160
RESOLUTION_X 100
RESOLUTION_Y 100
SPACING "P"
AVERAGE_WIDTH 118
CHARSET_REGISTRY "ISO10646"
CHARSET_ENCODING "1"
FONT_ASCENT 15
FONT_DESCENT 2
COPYRIGHT "Copyright David Fens 2013"
_OTF_FONTFILE "Mario-Kart-DS.ttf"
_OTF_PSNAME "Mario-Kart-DS"
ENDPROPERTIES
CHARS 69
STARTCHAR 0020
ENCODING 32
SWIDTH 135 0
DWIDTH 3 0
BBX 0 0 0 0
BITMAP
ENDCHAR
STARTCHAR 0021
ENCODING 33
SWIDTH 270 0
DWIDTH 6 0
BBX 4 13 0 0
BITMAP
F0
F0
F0
F0
E0
E0
E0
E0
E0
00
E0
E0
E0
ENDCHAR
STARTCHAR 0026
ENCODING 38
SWIDTH 630 0
DWIDTH 14 0
BBX 12 13 0 0
BITMAP
1F00
71C0
71C0
71C0
1F00
7720
7720
E1F0
E1E0
E1E0
77F0
1620
1E20
ENDCHAR
STARTCHAR 002D
ENCODING 45
SWIDTH 405 0
DWIDTH 9 0
BBX 7 3 0 6
BITMAP
FE
FE
FE
ENDCHAR
STARTCHAR 002E
ENCODING 46
SWIDTH 225 0
DWIDTH 5 0
BBX 3 3 0 0
BITMAP
E0
E0
E0
ENDCHAR
STARTCHAR 0030
ENCODING 48
SWIDTH 585 0
DWIDTH 13 0
BBX 11 13 0 0
BITMAP
1F80
1F80
3FC0
F9E0
E060
E060
E060
E060
E060
F9E0
3FC0
3FC0
1F80
ENDCHAR
STARTCHAR 0031
ENCODING 49
SWIDTH 315 0
DWIDTH 7 0
BBX 4 13 1 0
BITMAP
F0
F0
F0
70
70
70
70
70
70
70
70
70
70
ENDCHAR
STARTCHAR 0032
ENCODING 50
SWIDTH 540 0
DWIDTH 12 0
BBX 10 13 0 0
BITMAP
FE00
FE00
FF00
03C0
0F00
0F00
1E00
7800
F000
F000
FFC0
FFC0
FFC0
ENDCHAR
STARTCHAR 0033
ENCODING 51
SWIDTH 540 0
DWIDTH 12 0
BBX 10 13 0 0
BITMAP
FE00
FE00
FF00
03C0
0F00
0F00
1E00
0F00
0300
03C0
FF00
FE00
FE00
ENDCHAR
STARTCHAR 0034
ENCODING 52
SWIDTH 675 0
DWIDTH 15 0
BBX 13 13 0 0
BITMAP
0200
0200
0F00
1E00
79C0
79C0
F1C0
E1C0
E1C0
7FF8
1FF8
1FF8
01C0
ENDCHAR
STARTCHAR 0035
ENCODING 53
SWIDTH 495 0
DWIDTH 11 0
BBX 9 13 0 0
BITMAP
FF00
FF00
FF00
8000
8000
8000
FF00
0780
0780
0780
FF00
FF00
FE00
ENDCHAR
STARTCHAR 0036
ENCODING 54
SWIDTH 630 0
DWIDTH 14 0
BBX 12 13 0 0
BITMAP
0200
0200
0F00
1E00
7800
7800
FFE0
F0F0
F0F0
F0F0
7FE0
1FC0
1FC0
ENDCHAR
STARTCHAR 0037
ENCODING 55
SWIDTH 585 0
DWIDTH 13 0
BBX 11 13 0 0
BITMAP
FF00
FFC0
FFC0
E1E0
01C0
01C0
07C0
0700
0700
0F00
0E00
0E00
0E00
ENDCHAR
STARTCHAR 0038
ENCODING 56
SWIDTH 630 0
DWIDTH 14 0
BBX 12 13 0 0
BITMAP
3F80
3080
70E0
F0F0
7FE0
7FE0
3F80
70E0
70E0
F0F0
7FE0
3F80
3F80
ENDCHAR
STARTCHAR 0039
ENCODING 57
SWIDTH 630 0
DWIDTH 14 0
BBX 12 13 0 0
BITMAP
1FC0
7FE0
7FE0
F0F0
F0F0
F0F0
7FE0
01C0
01C0
01C0
0700
0700
0700
ENDCHAR
STARTCHAR 003F
ENCODING 63
SWIDTH 585 0
DWIDTH 13 0
BBX 11 13 0 0
BITMAP
1F80
1F80
3FC0
F1E0
23C0
23C0
0F80
0E00
0E00
0000
0E00
0E00
0E00
ENDCHAR
STARTCHAR 0041
ENCODING 65
SWIDTH 720 0
DWIDTH 16 0
BBX 14 17 0 -3
BITMAP
0FE0
0870
0870
181C
1004
1004
3784
2784
E784
E784
8004
8704
8704
8704
FFFC
FFFC
FFFC
ENDCHAR
STARTCHAR 0042
ENCODING 66
SWIDTH 720 0
DWIDTH 16 0
BBX 14 17 0 -3
BITMAP
FFE0
8070
8070
8010
8F10
8F10
8F70
801C
8F04
8F04
8F04
801C
801C
807C
FFF0
FFE0
FFE0
ENDCHAR
STARTCHAR 0043
ENCODING 67
SWIDTH 720 0
DWIDTH 16 0
BBX 14 17 0 -3
BITMAP
0FE0
3830
701C
701C
C704
8704
8FDC
8FFC
8FDC
8FDC
8704
C01C
C01C
F03C
7FF0
3FE0
3FE0
ENDCHAR
STARTCHAR 0044
ENCODING 68
SWIDTH 630 0
DWIDTH 14 0
BBX 12 17 0 -3
BITMAP
FF00
81C0
80E0
80E0
8E30
8F10
8F10
8F10
8E10
8E10
8830
80F0
80F0
81E0
FFC0
FF00
FF00
ENDCHAR
STARTCHAR 0045
ENCODING 69
SWIDTH 630 0
DWIDTH 14 0
BBX 12 17 0 -3
BITMAP
FFF0
8010
8010
8010
8FF0
8FE0
8FE0
8020
8FE0
8FE0
8FF0
8010
8010
8010
FFF0
FFF0
FFF0
ENDCHAR
STARTCHAR 0046
ENCODING 70
SWIDTH 630 0
DWIDTH 14 0
BBX 12 17 0 -3
BITMAP
FFF0
8010
8010
8010
8FF0
8FE0
8FE0
8020
8FE0
8FE0
8FE0
8800
8800
8800
F800
F800
F800
ENDCHAR
STARTCHAR 0047
ENCODING 71
SWIDTH 720 0
DWIDTH 16 0
BBX 14 17 0 -3
BITMAP
0FE0
3870
701C
701C
C704
8704
8FFC
8E04
8F84
8704
8704
C01C
C01C
F07C
7FF0
3FE0
3FE0
ENDCHAR
STARTCHAR 0048
ENCODING 72
SWIDTH 720 0
DWIDTH 16 0
BBX 14 19 0 -3
BITMAP
FEFC
8284
8284
8284
8284
8284
8384
8004
8004
8004
8004
8004
8F84
8F84
8F84
8884
F8FC
F8FC
F8FC
ENDCHAR
STARTCHAR 0049
ENCODING 73
SWIDTH 450 0
DWIDTH 10 0
BBX 8 17 0 -3
BITMAP
FF
81
81
81
81
81
83
83
83
82
8E
8E
8E
88
F8
F8
F8
ENDCHAR
STARTCHAR 004A
ENCODING 74
SWIDTH 720 0
DWIDTH 16 0
BBX 14 17 0 -3
BITMAP
01FC
0104
0104
0104
0184
0184
0084
7884
EF84
EF84
8704
E01C
E01C
F07C
7FF0
1FE0
1FE0
ENDCHAR
STARTCHAR 004B
ENCODING 75
SWIDTH 630 0
DWIDTH 14 0
BBX 12 17 0 -3
BITMAP
F9E0
8F30
8E10
8E10
8830
8830
80F0
81E0
80E0
8830
8830
8E10
8E10
8F30
FFF0
F9E0
F9E0
ENDCHAR
STARTCHAR 004C
ENCODING 76
SWIDTH 720 0
DWIDTH 16 0
BBX 14 17 0 -3
BITMAP
1F00
1100
1100
1100
3100
2100
2100
2700
E700
E700
87FC
8004
8004
8004
FFFC
FFFC
FFFC
ENDCHAR
STARTCHAR 004D
ENCODING 77
SWIDTH 765 0
DWIDTH 17 0
BBX 15 17 0 -3
BITMAP
3EFC
2284
2284
2284
2384
2104
2104
2004
E006
E006
8822
8EE2
8EE2
8FE2
FFFE
FFFE
FC3E
ENDCHAR
STARTCHAR 004E
ENCODING 78
SWIDTH 720 0
DWIDTH 16 0
BBX 14 17 0 -3
BITMAP
78FC
CE84
8784
8784
8184
8084
8084
8804
8E04
8E04
8F04
8F84
8984
89FC
F8FC
F8FC
F800
ENDCHAR
STARTCHAR 004F
ENCODING 79
SWIDTH 720 0
DWIDTH 16 0
BBX 14 17 0 -3
BITMAP
0FE0
3830
701C
701C
C704
8704
8FC4
8FC4
8FC4
8FC4
8704
C01C
C01C
F03C
7FF0
3FE0
3FE0
ENDCHAR
STARTCHAR 0050
ENCODING 80
SWIDTH 630 0
DWIDTH 14 0
BBX 12 17 0 -3
BITMAP
FFC0
80E0
8030
8030
8F10
8F10
8F10
8F10
8030
8030
8FF0
8FE0
8FE0
8800
F800
F800
F800
ENDCHAR
STARTCHAR 0051
ENCODING 81
SWIDTH 765 0
DWIDTH 17 0
BBX 15 17 0 -3
BITMAP
1FE0
7038
E01C
E01C
8704
8704
8FC4
8FC4
8FC4
8E04
8706
E002
E002
F026
7FFE
1FFC
1FFC
ENDCHAR
STARTCHAR 0052
ENCODING 82
SWIDTH 720 0
DWIDTH 16 0
BBX 14 17 0 -3
BITMAP
FFE0
8030
801C
801C
8FC4
8FC4
8FC4
8F1C
803C
801C
8E1C
8F0C
8F0C
8FDC
F9FC
F8F0
F8F0
ENDCHAR
STARTCHAR 0053
ENCODING 83
SWIDTH 720 0
DWIDTH 16 0
BBX 14 17 0 -3
BITMAP
3FF0
703C
C00C
C00C
87BC
83BC
C3FC
F83C
CF04
CF04
8784
C004
C004
F03C
7FFC
3FF0
3FF0
ENDCHAR
STARTCHAR 0054
ENCODING 84
SWIDTH 720 0
DWIDTH 16 0
BBX 14 17 0 -3
BITMAP
FFFC
8004
8004
8004
F8FC
F8FC
F8FC
0880
1880
1880
1080
1080
1080
1080
1F80
1F80
1F80
ENDCHAR
STARTCHAR 0055
ENCODING 85
SWIDTH 765 0
DWIDTH 17 0
BBX 15 17 0 -3
BITMAP
F800
883E
8822
8822
8822
8822
8822
8822
8FE2
8FE2
8782
C00E
C00E
F01E
7FFC
3FF0
3FF0
ENDCHAR
STARTCHAR 0056
ENCODING 86
SWIDTH 765 0
DWIDTH 17 0
BBX 15 17 0 -3
BITMAP
783C
E826
E826
8EE2
8282
E386
E386
E106
711C
701C
701C
1838
1838
1838
0FE0
0FE0
0FE0
ENDCHAR
STARTCHAR 0057
ENCODING 87
SWIDTH 765 0
DWIDTH 17 0
BBX 15 17 0 -3
BITMAP
F83E
8822
8822
8822
8FE2
8EE2
8EE2
8822
8002
8002
E106
E786
E786
2FE4
3EFC
383C
383C
ENDCHAR
STARTCHAR 0058
ENCODING 88
SWIDTH 720 0
DWIDTH 16 0
BBX 14 17 0 -3
BITMAP
78F0
EFDC
8704
8704
E01C
E01C
F03C
78F0
7030
E01C
E01C
8704
8704
EFDC
FFFC
78F0
78F0
ENDCHAR
STARTCHAR 0059
ENCODING 89
SWIDTH 765 0
DWIDTH 17 0
BBX 15 17 0 -3
BITMAP
783C
CEEE
8782
8782
C10E
C00C
F01C
783C
3830
3830
0820
0820
0820
0820
0FE0
0FE0
0FE0
ENDCHAR
STARTCHAR 005A
ENCODING 90
SWIDTH 630 0
DWIDTH 14 0
BBX 12 17 0 -3
BITMAP
FFE0
8030
8030
8010
FE10
FC30
FC30
70F0
E1E0
E1E0
87F0
8010
8010
8010
FFF0
FFF0
FFF0
ENDCHAR
STARTCHAR 0061
ENCODING 97
SWIDTH 585 0
DWIDTH 13 0
BBX 11 13 0 0
BITMAP
0F00
0FC0
0FC0
1FE0
10E0
10E0
70E0
70E0
70E0
FFE0
F1E0
F1E0
F1E0
ENDCHAR
STARTCHAR 0062
ENCODING 98
SWIDTH 585 0
DWIDTH 13 0
BBX 11 13 0 0
BITMAP
FF00
FF80
FF80
E180
E100
E100
FF80
E1E0
E1E0
E1E0
FF80
FF80
FF00
ENDCHAR
STARTCHAR 0063
ENCODING 99
SWIDTH 585 0
DWIDTH 13 0
BBX 11 13 0 0
BITMAP
0780
0780
1FC0
71E0
E040
E040
E000
E040
E040
F9E0
7FC0
1F80
1F80
ENDCHAR
STARTCHAR 0064
ENCODING 100
SWIDTH 540 0
DWIDTH 12 0
BBX 10 13 0 0
BITMAP
F800
FE00
FE00
E700
E1C0
E1C0
E1C0
E7C0
EF00
EF00
FE00
F800
F800
ENDCHAR
STARTCHAR 0065
ENCODING 101
SWIDTH 495 0
DWIDTH 11 0
BBX 10 13 0 0
BITMAP
FFC0
FFC0
FFC0
E000
E000
E000
FF00
E000
E000
E000
FFC0
FFC0
FFC0
ENDCHAR
STARTCHAR 0066
ENCODING 102
SWIDTH 495 0
DWIDTH 11 0
BBX 10 13 0 0
BITMAP
FFC0
FFC0
FFC0
E000
E000
E000
FF00
E000
E000
E000
E000
E000
E000
ENDCHAR
STARTCHAR 0067
ENCODING 103
SWIDTH 585 0
DWIDTH 13 0
BBX 11 13 0 0
BITMAP
0780
1FC0
1FC0
71E0
E000
E000
E3E0
E060
E060
F9E0
7FC0
7FC0
1F80
ENDCHAR
STARTCHAR 0068
ENCODING 104
SWIDTH 585 0
DWIDTH 13 0
BBX 11 13 0 0
BITMAP
F0E0
F0E0
F0E0
F0E0
F0E0
F0E0
FFE0
FFE0
FFE0
E0E0
E0E0
E0E0
E0E0
ENDCHAR
STARTCHAR 0069
ENCODING 105
SWIDTH 315 0
DWIDTH 7 0
BBX 6 13 0 0
BITMAP
FC
FC
FC
FC
F0
F0
F0
F0
F0
E0
E0
E0
E0
ENDCHAR
STARTCHAR 006A
ENCODING 106
SWIDTH 585 0
DWIDTH 13 0
BBX 11 13 0 0
BITMAP
01E0
01E0
01E0
0060
0060
0060
0060
2060
2060
F1E0
3FC0
1F80
1F80
ENDCHAR
STARTCHAR 006B
ENCODING 107
SWIDTH 540 0
DWIDTH 12 0
BBX 10 13 0 0
BITMAP
E100
E100
E3C0
EF00
FE00
FE00
FC00
FE00
EE00
EF00
E3C0
E100
E100
ENDCHAR
STARTCHAR 006C
ENCODING 108
SWIDTH 585 0
DWIDTH 13 0
BBX 11 13 1 0
BITMAP
3000
3000
3000
3000
7000
7000
7000
7000
7000
F000
FFE0
FFE0
FFE0
ENDCHAR
STARTCHAR 006D
ENCODING 109
SWIDTH 675 0
DWIDTH 15 0
BBX 14 13 0 0
BITMAP
7060
7060
7060
7060
7DE0
7DE0
7FE0
7FE0
7FE0
EF3C
E23C
E23C
E03C
ENDCHAR
STARTCHAR 006E
ENCODING 110
SWIDTH 585 0
DWIDTH 13 0
BBX 11 13 0 0
BITMAP
20E0
F0E0
F0E0
FCE0
FEE0
EEE0
EFE0
E3E0
E1E0
E1E0
E0E0
E0E0
E000
ENDCHAR
STARTCHAR 006F
ENCODING 111
SWIDTH 585 0
DWIDTH 13 0
BBX 11 13 0 0
BITMAP
0780
1FC0
1FC0
70E0
E060
E060
E060
E060
E060
F8E0
7FC0
7FC0
1F80
ENDCHAR
STARTCHAR 0070
ENCODING 112
SWIDTH 540 0
DWIDTH 12 0
BBX 10 13 0 0
BITMAP
FE00
FF00
FF00
E1C0
E1C0
E1C0
E1C0
FF00
E000
E000
E000
E000
E000
ENDCHAR
STARTCHAR 0071
ENCODING 113
SWIDTH 675 0
DWIDTH 15 0
BBX 13 13 0 0
BITMAP
1F80
1F80
3FC0
F9E0
E060
E060
E060
E3E0
F9E0
F9E0
3FF8
3FF8
1FA0
ENDCHAR
STARTCHAR 0072
ENCODING 114
SWIDTH 585 0
DWIDTH 13 0
BBX 12 13 0 0
BITMAP
FF80
FFC0
FFC0
E070
E070
E1C0
E1C0
FF80
E380
E3C0
E1F0
E040
E040
ENDCHAR
STARTCHAR 0073
ENCODING 115
SWIDTH 585 0
DWIDTH 13 0
BBX 12 13 0 0
BITMAP
1FC0
1FC0
3FF0
F040
3C00
3C00
0FC0
21F0
21F0
F070
3FF0
1FC0
1FC0
ENDCHAR
STARTCHAR 0074
ENCODING 116
SWIDTH 585 0
DWIDTH 13 0
BBX 11 13 0 0
BITMAP
FFE0
FFE0
FFE0
0E00
0E00
0E00
0E00
0E00
0E00
1E00
1E00
1E00
1E00
ENDCHAR
STARTCHAR 0075
ENCODING 117
SWIDTH 675 0
DWIDTH 15 0
BBX 13 13 0 0
BITMAP
E000
E038
E038
E038
E038
E038
E038
E038
F038
F078
7FE0
7FE0
1FC0
ENDCHAR
STARTCHAR 0076
ENCODING 118
SWIDTH 675 0
DWIDTH 15 0
BBX 13 13 0 0
BITMAP
2010
E018
E018
F878
3870
3870
3DF0
1DC0
1DC0
1FC0
0780
0780
0780
ENDCHAR
STARTCHAR 0077
ENCODING 119
SWIDTH 630 0
DWIDTH 14 0
BBX 13 13 0 0
BITMAP
E038
E038
E038
E038
E038
E238
EF38
FFF8
FFF8
3DE0
30E0
2020
2020
ENDCHAR
STARTCHAR 0078
ENCODING 120
SWIDTH 585 0
DWIDTH 13 0
BBX 11 13 0 0
BITMAP
2040
2040
F1E0
3FC0
1F80
1F80
0E00
1F80
1F80
3FC0
F1E0
2040
2040
ENDCHAR
STARTCHAR 0079
ENCODING 121
SWIDTH 630 0
DWIDTH 14 0
BBX 12 13 0 0
BITMAP
2020
2020
F0F0
3DE0
1FC0
1FC0
0F00
0F00
0F00
0F00
0F00
0F00
0F00
ENDCHAR
STARTCHAR 007A
ENCODING 122
SWIDTH 540 0
DWIDTH 12 0
BBX 10 13 0 0
BITMAP
FF00
FFC0
FFC0
03C0
0F00
1E00
1E00
7800
F000
F000
FFC0
FFC0
FFC0
ENDCHAR
STARTCHAR 2019
ENCODING 8217
SWIDTH 225 0
DWIDTH 5 0
BBX 3 5 0 8
BITMAP
E0
E0
E0
20
80
ENDCHAR
ENDFONT
